<svg width="92" height="32" viewBox="0 0 92 32" fill="none" xmlns="http://www.w3.org/2000/svg">
<path fill-rule="evenodd" clip-rule="evenodd" d="M20.2534 29.6339H20.8163L20.8234 29.6407C20.9318 29.6384 21.0395 29.6567 21.1402 29.6944C21.241 29.7321 21.3328 29.7886 21.4103 29.8604C21.4877 29.9322 21.5493 30.018 21.5913 30.1127C21.6333 30.2074 21.6549 30.3091 21.6549 30.4118C21.6549 30.5145 21.6333 30.6162 21.5913 30.7109C21.5493 30.8056 21.4877 30.8913 21.4103 30.9632C21.3328 31.035 21.241 31.0914 21.1402 31.1292C21.0395 31.1669 20.9318 31.1852 20.8234 31.1829H0.85858C0.750258 31.1852 0.642551 31.1669 0.541778 31.1292C0.441006 31.0914 0.3492 31.035 0.271747 30.9632C0.194294 30.8913 0.13275 30.8056 0.0907365 30.7109C0.0487226 30.6162 0.0270812 30.5145 0.0270812 30.4118C0.0270812 30.3091 0.0487226 30.2074 0.0907365 30.1127C0.13275 30.018 0.194294 29.9322 0.271747 29.8604C0.3492 29.7886 0.441006 29.7321 0.541778 29.6944C0.642551 29.6567 0.750258 29.6384 0.85858 29.6407H1.42189C1.42681 29.6181 1.43216 29.5947 1.43738 29.5719C1.44221 29.5508 1.44693 29.5302 1.4511 29.5112C1.45978 29.4715 1.46847 29.4341 1.47755 29.3966C1.4836 29.3717 1.49 29.3468 1.49641 29.3218L1.49642 29.3218L1.50597 29.2844C1.51308 29.2567 1.52018 29.2294 1.52768 29.2017C1.53795 29.1627 1.549 29.1227 1.56005 29.0853L1.58137 29.0104C1.59321 28.97 1.60545 28.9296 1.61808 28.8895L1.62178 28.8775C1.62727 28.8597 1.63281 28.8418 1.63861 28.8241C1.65071 28.7814 1.66387 28.7391 1.67808 28.6972C1.68359 28.68 1.68949 28.6632 1.69539 28.6465L1.69545 28.6463C1.71124 28.5995 1.72743 28.5531 1.74401 28.5067L1.74408 28.5036L1.74401 28.5015C1.80585 28.331 1.87269 28.163 1.94454 27.9973C1.94602 27.9944 1.94734 27.9914 1.94848 27.9884C2.92185 25.7567 4.78699 23.9808 7.13668 23.0484H5.72387C5.49373 23.0484 5.30701 22.7969 5.30701 22.487C5.30701 22.2026 5.46452 21.9694 5.66821 21.932C5.47241 20.4597 4.97266 14.2832 9.36662 8.89183C9.36662 8.89183 9.26201 8.9214 9.07805 8.98015C8.15947 9.27468 4.95055 10.6946 3.29655 12.5033C3.12017 12.7474 2.97345 13.0097 2.85917 13.2851L0.295667 11.7881L0 9.17102L6.76719 2.39347L6.40876 0.103841C6.40876 0.103841 17.5983 -1.62554 19.1773 9.03068C19.1929 9.13871 19.208 9.24587 19.2227 9.35216L19.2284 9.3937L19.2342 9.43524C19.2468 9.52905 19.2588 9.62236 19.2701 9.71517C19.2706 9.71925 19.2714 9.72342 19.2722 9.72764C19.2737 9.73582 19.2752 9.7442 19.2752 9.75259C19.2879 9.85626 19.2997 9.95843 19.3108 10.0602C19.3139 10.086 19.3167 10.1115 19.3194 10.1373L19.3221 10.1622C19.3303 10.2395 19.3384 10.3161 19.3459 10.3922C19.3465 10.3994 19.3474 10.4066 19.3483 10.4137L19.3484 10.4138C19.3499 10.4255 19.3514 10.4371 19.3514 10.4487C19.3609 10.5475 19.37 10.6459 19.3783 10.7432L19.3804 10.7646C19.3821 10.7807 19.3838 10.7968 19.3838 10.8128C19.3902 10.8903 19.396 10.9671 19.4017 11.0436L19.4023 11.0523L19.4071 11.1186C19.4136 11.2136 19.4197 11.3079 19.4252 11.4015C19.4284 11.4221 19.4284 11.4404 19.4284 11.4595C19.4329 11.5374 19.4368 11.6147 19.4402 11.6915C19.4405 11.701 19.4411 11.7104 19.4417 11.7199C19.4425 11.7342 19.4434 11.7485 19.4434 11.7627L19.4436 11.7672C19.4471 11.857 19.4505 11.9464 19.4533 12.0347V12.077L19.4551 12.1416C19.4567 12.198 19.4584 12.2541 19.4584 12.3083V12.3832V12.6451V12.6638V12.9048V12.9778C19.4573 13.0522 19.4558 13.1258 19.4537 13.1986V13.2331C19.4513 13.315 19.4481 13.3959 19.445 13.4763C19.4418 13.4999 19.4418 13.5235 19.4418 13.5471C19.439 13.6122 19.4355 13.6769 19.4319 13.7413C19.4292 13.757 19.4292 13.7768 19.4292 13.7944V13.7944C19.4244 13.8718 19.4193 13.9486 19.4138 14.025C19.4134 14.03 19.413 14.0351 19.4124 14.0402C19.4122 14.043 19.4119 14.0458 19.4116 14.0486L19.4116 14.0487C19.4101 14.0628 19.4086 14.077 19.4086 14.0912C19.4043 14.1511 19.3992 14.2106 19.394 14.2697C19.3935 14.2773 19.3927 14.2848 19.3918 14.2923L19.3918 14.2923L19.3918 14.2923L19.3918 14.2924C19.3904 14.3056 19.3889 14.3187 19.3889 14.3318C19.3823 14.4054 19.3752 14.4784 19.3676 14.5508C19.3658 14.5691 19.3637 14.5871 19.3616 14.6053L19.3609 14.611C19.3551 14.6674 19.3488 14.7235 19.3419 14.7794L19.3382 14.8109L19.334 14.846C19.3254 14.9164 19.3163 14.9856 19.3068 15.0545L19.2997 15.1054C19.2918 15.1608 19.2839 15.2154 19.2756 15.2697C19.2725 15.2925 19.2689 15.315 19.2654 15.3374C19.2548 15.4043 19.244 15.4707 19.233 15.5365C19.231 15.5481 19.2286 15.5597 19.2267 15.5717L19.2207 15.6053L19.2207 15.6057C19.2128 15.6504 19.2049 15.6953 19.1967 15.7397C19.1923 15.7618 19.1884 15.7839 19.184 15.806C19.1738 15.8603 19.1631 15.9145 19.1521 15.968C19.1497 15.9811 19.1473 15.9935 19.1446 16.0055C19.1319 16.0676 19.1185 16.1286 19.1051 16.1896L19.0909 16.2532C19.0802 16.3007 19.0692 16.3479 19.0581 16.3947L19.0463 16.4437C19.0321 16.5025 19.0175 16.5605 19.0028 16.6181C18.9973 16.6379 18.9922 16.6578 18.9871 16.6776C18.9756 16.7214 18.9638 16.7644 18.9519 16.8075C18.9472 16.8254 18.9424 16.8434 18.9373 16.861C18.9219 16.9167 18.9057 16.9721 18.8896 17.0264L18.8853 17.0401L18.8806 17.0561L18.8738 17.0799L18.8343 17.203C18.8288 17.2203 18.8228 17.2393 18.8173 17.2577C18.8003 17.3104 18.783 17.3632 18.7656 17.4149C18.7609 17.4298 18.7557 17.4448 18.7506 17.4598L18.7502 17.4608C18.7365 17.5009 18.7228 17.541 18.7088 17.5803L18.6898 17.6334L18.6759 17.6715L18.6758 17.672C18.6623 17.7092 18.6487 17.7465 18.6349 17.7831L18.6231 17.8146C18.6073 17.8561 18.5911 17.8976 18.5749 17.9388L18.5552 17.9882C18.5378 18.0316 18.5205 18.0746 18.5027 18.1169C18.4995 18.1252 18.496 18.1338 18.4924 18.142C18.4735 18.188 18.4537 18.2337 18.434 18.279L18.4139 18.3239L18.4136 18.3244C18.3967 18.3617 18.3798 18.3989 18.3626 18.4362L18.3495 18.465C18.3286 18.5103 18.3077 18.5552 18.2864 18.5993L18.2674 18.6368C18.2501 18.6727 18.2323 18.7086 18.2149 18.7438L18.1995 18.7741C18.1774 18.8175 18.1553 18.8602 18.1332 18.9025C18.1281 18.9126 18.1226 18.9227 18.117 18.9324C18.0985 18.9676 18.0799 19.0024 18.061 19.0368L18.0452 19.0656C18.0223 19.1072 17.999 19.1484 17.9757 19.1888C17.9722 19.1955 17.9682 19.2019 17.9643 19.2082C17.9441 19.2438 17.9232 19.279 17.9027 19.3134L17.8873 19.3392L17.8726 19.3637L17.8726 19.3638C17.8534 19.3959 17.8341 19.428 17.8147 19.4579C17.8119 19.4597 17.8119 19.4627 17.8119 19.4627L17.7408 19.575L17.7274 19.5956C17.6777 19.6734 17.6271 19.7479 17.5766 19.8201L17.5664 19.8347C17.5156 19.9083 17.4639 19.9796 17.4112 20.0484L17.4057 20.0555C16.7109 20.9754 16.0106 21.4762 15.6127 21.7112C15.5816 21.7913 15.5527 21.8624 15.5267 21.9252H15.9475C16.1776 21.9252 16.3643 22.1764 16.3643 22.4866C16.3643 22.7969 16.1776 23.048 15.9475 23.048H14.5347C14.6065 23.0764 14.6776 23.1052 14.7482 23.1352L14.7648 23.1423C15.0327 23.2558 15.2938 23.3806 15.548 23.5165L15.5689 23.5278C15.6167 23.5536 15.6645 23.5794 15.7122 23.606L15.7181 23.6097C15.8689 23.694 16.017 23.7822 16.1622 23.8743L16.1697 23.8788L16.1702 23.8791L16.1703 23.8792L16.1703 23.8792C16.214 23.9071 16.2576 23.9351 16.3008 23.9637L16.3288 23.9821C16.3714 24.0102 16.4137 24.0386 16.4559 24.0674L16.4745 24.0805C16.6079 24.173 16.7401 24.2691 16.8692 24.3679L16.8886 24.3825C16.9052 24.3954 16.9214 24.4082 16.9376 24.4211C16.9587 24.4379 16.9799 24.4547 17.0023 24.4716L17.0386 24.5008C17.0752 24.53 17.1115 24.5595 17.1475 24.5895L17.1795 24.6161C17.2963 24.7122 17.4112 24.8125 17.5229 24.9155L17.5557 24.9454C17.5877 24.975 17.6192 25.0049 17.6508 25.0352L17.6954 25.0779L17.7862 25.1666L17.8297 25.2104C17.9287 25.3099 18.0254 25.4121 18.1198 25.5157L18.1652 25.5659L18.2418 25.6527L18.2931 25.7118C18.3176 25.7407 18.342 25.7691 18.3661 25.7979L18.4182 25.8608L18.4368 25.8834L18.4368 25.8834L18.4369 25.8835C18.454 25.9044 18.4713 25.9253 18.4881 25.9465L18.5422 26.015C18.5576 26.0349 18.5726 26.0548 18.5876 26.0747C18.6103 26.1047 18.6329 26.1347 18.6567 26.1647L18.7123 26.2395C18.7203 26.2504 18.7285 26.2619 18.7365 26.2734L18.7366 26.2735C18.7488 26.2907 18.7608 26.3077 18.7719 26.3219C18.7905 26.3454 18.8094 26.3698 18.8268 26.3967C18.838 26.4141 18.8506 26.4317 18.8632 26.4494L18.867 26.4547L18.8836 26.4783C18.8939 26.4931 18.9043 26.5085 18.9144 26.5237L18.9146 26.5239C18.9231 26.5367 18.9316 26.5492 18.9397 26.561L18.9685 26.6034L18.9922 26.6388C19.0154 26.6738 19.0381 26.7093 19.0607 26.7446L19.0609 26.7449L19.0735 26.7646L19.1304 26.8559C19.1471 26.881 19.162 26.906 19.1769 26.9311L19.1923 26.9569C19.2073 26.9809 19.2223 27.0063 19.2369 27.0318C19.2552 27.0628 19.2731 27.0938 19.291 27.1248L19.2918 27.1261L19.3352 27.201L19.3909 27.3024L19.4304 27.3724C19.4596 27.4263 19.4884 27.4828 19.5164 27.5385C19.5247 27.555 19.5322 27.5715 19.5405 27.5875C19.5595 27.6232 19.5762 27.6592 19.5931 27.6954L19.6025 27.7155C19.6135 27.7387 19.6246 27.7623 19.6352 27.7855C19.6526 27.823 19.6696 27.8604 19.6862 27.8978L19.7181 27.97C19.7259 27.9879 19.7337 28.0063 19.7413 28.0246L19.7414 28.0246C19.7456 28.0347 19.7498 28.0448 19.7541 28.0548C19.7588 28.0659 19.7635 28.0769 19.7683 28.0875C19.7773 28.1089 19.7864 28.1302 19.7951 28.1519C19.8196 28.2114 19.8437 28.2709 19.8666 28.3308C19.8709 28.3417 19.8745 28.3521 19.8788 28.363C19.8983 28.4139 19.9172 28.4652 19.9356 28.5168C19.9431 28.5381 19.951 28.5602 19.9585 28.5819C19.9731 28.6231 19.9874 28.6646 20.0012 28.7062C20.0087 28.7294 20.0166 28.7526 20.0241 28.7761C20.0312 28.8006 20.0388 28.825 20.0463 28.8494L20.0537 28.8734L20.0635 28.9056L20.0825 28.9666C20.1014 29.0298 20.1196 29.0931 20.137 29.1568L20.1417 29.1736C20.1575 29.2323 20.1729 29.2911 20.1875 29.3499C20.1926 29.3708 20.1978 29.3918 20.2025 29.4127C20.2135 29.4573 20.2242 29.5022 20.2341 29.5475L20.2495 29.6163C20.2497 29.6174 20.25 29.6184 20.2502 29.6195C20.2505 29.6204 20.2508 29.6213 20.2511 29.6223C20.2522 29.6261 20.2534 29.63 20.2534 29.6339ZM67.0283 29.6339H67.5912L67.5983 29.6407C67.7067 29.6384 67.8144 29.6567 67.9151 29.6944C68.0159 29.7321 68.1077 29.7886 68.1852 29.8604C68.2626 29.9322 68.3242 30.018 68.3662 30.1127C68.4082 30.2074 68.4298 30.3091 68.4298 30.4118C68.4298 30.5145 68.4082 30.6162 68.3662 30.7109C68.3242 30.8056 68.2626 30.8913 68.1852 30.9632C68.1077 31.035 68.0159 31.0914 67.9151 31.1292C67.8144 31.1669 67.7067 31.1852 67.5983 31.1829H47.6335C47.5252 31.1852 47.4175 31.1669 47.3167 31.1292C47.2159 31.0914 47.1241 31.035 47.0466 30.9632C46.9692 30.8913 46.9077 30.8056 46.8656 30.7109C46.8236 30.6162 46.802 30.5145 46.802 30.4118C46.802 30.3091 46.8236 30.2074 46.8656 30.1127C46.9077 30.018 46.9692 29.9322 47.0466 29.8604C47.1241 29.7886 47.2159 29.7321 47.3167 29.6944C47.4175 29.6567 47.5252 29.6384 47.6335 29.6407H48.1968C48.2017 29.6183 48.207 29.5952 48.2121 29.5726L48.2122 29.5722L48.2123 29.5718C48.2171 29.5507 48.2218 29.5302 48.226 29.5112L48.2342 29.4743L48.2402 29.448L48.2525 29.3966C48.2615 29.3592 48.2714 29.3218 48.2809 29.2844C48.288 29.2567 48.2951 29.2294 48.3026 29.2017C48.3085 29.1791 48.3148 29.1561 48.3211 29.1336C48.3257 29.1172 48.3303 29.101 48.335 29.0853L48.3563 29.0104C48.3681 28.97 48.3803 28.9296 48.393 28.8895C48.3997 28.8678 48.4064 28.8458 48.4135 28.8241C48.4256 28.7814 48.4388 28.7391 48.453 28.6972C48.4585 28.68 48.4644 28.6631 48.4704 28.6463C48.4861 28.5995 48.5023 28.5531 48.5189 28.5067C48.519 28.5049 48.519 28.5032 48.5189 28.5015C48.5808 28.331 48.6476 28.163 48.7194 27.9973C48.7209 27.9944 48.7222 27.9914 48.7234 27.9884C49.6968 25.7567 51.5619 23.9808 53.9116 23.0484H52.4988C52.2686 23.0484 52.0819 22.7969 52.0819 22.487C52.0819 22.2026 52.2394 21.9694 52.4431 21.932C52.2473 20.4597 51.7476 14.2832 56.1415 8.89183C56.1415 8.89183 56.0369 8.9214 55.853 8.98015C54.9344 9.27468 51.7255 10.6946 50.0715 12.5033C49.8951 12.7474 49.7484 13.0097 49.6341 13.2851L47.0706 11.7881L46.7749 9.17102L53.5421 2.39347L53.1837 0.103841C53.1837 0.103841 64.3732 -1.62554 65.9522 9.03068C65.9678 9.13871 65.9829 9.24587 65.9976 9.35216L66.0034 9.39411L66.0091 9.43524C66.0217 9.52905 66.0337 9.62236 66.045 9.71517C66.0452 9.71674 66.0454 9.71832 66.0457 9.71991C66.0461 9.72245 66.0466 9.72503 66.0471 9.72763C66.0486 9.73581 66.0501 9.7442 66.0501 9.75259C66.0628 9.85626 66.0746 9.95843 66.0857 10.0602C66.0888 10.086 66.0916 10.1115 66.0943 10.1373L66.0971 10.1631C66.1052 10.2401 66.1133 10.3164 66.1208 10.3922C66.1214 10.3994 66.1223 10.4066 66.1233 10.4138C66.1248 10.4255 66.1263 10.4371 66.1263 10.4487C66.1358 10.5475 66.1449 10.6459 66.1532 10.7432L66.1553 10.7646C66.157 10.7807 66.1587 10.7968 66.1587 10.8128C66.1651 10.8895 66.1708 10.9656 66.1764 11.0413L66.1772 11.0523L66.182 11.1186C66.1886 11.2136 66.1946 11.3079 66.2001 11.4015C66.2033 11.4221 66.2033 11.4404 66.2033 11.4595C66.2078 11.5374 66.2117 11.6147 66.2151 11.6915C66.2154 11.7009 66.216 11.7104 66.2166 11.7199C66.2174 11.7342 66.2183 11.7485 66.2183 11.7627L66.2186 11.7705C66.222 11.8592 66.2255 11.9475 66.2282 12.0347V12.077L66.23 12.1415C66.2316 12.1979 66.2333 12.2541 66.2333 12.3083V12.3832V12.6451V12.6638V12.9048V12.9778C66.2322 13.0522 66.2307 13.1258 66.2286 13.1986V13.2331C66.2262 13.315 66.223 13.3959 66.2199 13.4763C66.2167 13.4998 66.2167 13.5234 66.2167 13.5469V13.5471C66.2139 13.6122 66.2104 13.6769 66.2068 13.7413C66.2041 13.757 66.2041 13.7768 66.2041 13.7944C66.1993 13.8718 66.1942 13.9486 66.1887 14.025C66.1881 14.0328 66.1873 14.0407 66.1865 14.0486C66.185 14.0628 66.1836 14.077 66.1836 14.0912C66.1792 14.1511 66.1741 14.2106 66.1689 14.2697C66.1684 14.2773 66.1675 14.2848 66.1667 14.2923V14.2924C66.1653 14.3056 66.1638 14.3187 66.1638 14.3318C66.1572 14.4054 66.1501 14.4784 66.1425 14.5508C66.1417 14.5584 66.1409 14.566 66.1401 14.5736C66.139 14.584 66.1377 14.5944 66.1365 14.6048L66.1358 14.611C66.13 14.6674 66.1237 14.7235 66.1168 14.7794L66.1123 14.8184L66.1089 14.846C66.1003 14.9164 66.0912 14.9856 66.0817 15.0545L66.0746 15.1054C66.0667 15.1608 66.0588 15.2154 66.0505 15.2697C66.048 15.2878 66.0453 15.3057 66.0424 15.3236L66.0404 15.3363L66.0403 15.3374C66.0297 15.4043 66.0189 15.4707 66.0079 15.5365L66.0042 15.5567L66.0016 15.5717L65.9959 15.604C65.9879 15.6492 65.9799 15.6947 65.9716 15.7397C65.9672 15.7618 65.9633 15.7839 65.9589 15.806C65.9535 15.835 65.9479 15.864 65.9421 15.8929C65.9372 15.9181 65.9321 15.9431 65.927 15.968C65.9246 15.9811 65.9222 15.9935 65.9195 16.0055C65.9068 16.0676 65.8934 16.1286 65.88 16.1896L65.8658 16.2532C65.8551 16.3007 65.8441 16.3479 65.833 16.3947L65.8212 16.4437C65.807 16.5025 65.7924 16.5605 65.7777 16.6181C65.7741 16.6313 65.7706 16.6445 65.7671 16.6578L65.762 16.6776C65.7505 16.7214 65.7387 16.7644 65.7268 16.8075L65.7267 16.8081C65.7238 16.819 65.7209 16.8298 65.718 16.8406C65.7161 16.8474 65.7142 16.8542 65.7122 16.861C65.6968 16.9167 65.6806 16.9721 65.6645 17.0264L65.6602 17.0402C65.6565 17.0523 65.6528 17.0653 65.6493 17.0778L65.6487 17.0799L65.6092 17.203C65.6037 17.2203 65.5977 17.2393 65.5922 17.2577C65.5752 17.3104 65.5579 17.3632 65.5405 17.4149C65.5359 17.4295 65.5309 17.444 65.5259 17.4586L65.5258 17.4588L65.5255 17.4598C65.5117 17.5002 65.4979 17.5406 65.4837 17.5803L65.4647 17.6334L65.4505 17.6726C65.437 17.7095 65.4235 17.7466 65.4098 17.7831L65.398 17.8146C65.3822 17.8561 65.366 17.8976 65.3498 17.9388L65.3301 17.9882C65.3127 18.0316 65.2954 18.0746 65.2776 18.1169L65.2707 18.1341L65.2673 18.142C65.2484 18.188 65.2287 18.2337 65.2089 18.279L65.1888 18.3239L65.1878 18.326C65.1712 18.3627 65.1545 18.3994 65.1375 18.4362L65.1244 18.465C65.1035 18.5103 65.0826 18.5552 65.0613 18.5993L65.0423 18.6368C65.0262 18.6701 65.0098 18.7034 64.9936 18.7361L64.9923 18.7388L64.9898 18.7438L64.9744 18.7741C64.9523 18.8175 64.9302 18.8602 64.9081 18.9025C64.903 18.9126 64.8975 18.9227 64.8919 18.9324L64.8693 18.975C64.8583 18.9958 64.8471 19.0164 64.8359 19.0368L64.8201 19.0656C64.7972 19.1072 64.7739 19.1484 64.7506 19.1888C64.7482 19.1933 64.7457 19.1977 64.743 19.202L64.7392 19.2082C64.719 19.2438 64.6981 19.279 64.6776 19.3134L64.6622 19.3392L64.6476 19.3637C64.6283 19.3958 64.6091 19.428 64.5896 19.4579C64.5868 19.4597 64.5868 19.4627 64.5868 19.4627L64.5157 19.575L64.5023 19.5956C64.4526 19.6734 64.402 19.7479 64.3515 19.8201L64.3413 19.8347C64.2905 19.9083 64.2388 19.9796 64.1861 20.0484L64.1806 20.0555C63.4858 20.9754 62.7855 21.4762 62.3876 21.7112C62.3565 21.7913 62.3276 21.8624 62.3016 21.9252H62.7224C62.9525 21.9252 63.1392 22.1764 63.1392 22.4866C63.1392 22.7969 62.9525 23.048 62.7224 23.048H61.3096C61.3814 23.0764 61.4525 23.1052 61.5231 23.1352L61.5397 23.1423C61.8076 23.2558 62.0687 23.3806 62.3229 23.5165L62.3438 23.5278L62.3439 23.5278L62.3439 23.5278L62.3439 23.5278C62.3917 23.5536 62.4394 23.5794 62.4871 23.606L62.493 23.6097C62.6438 23.694 62.7919 23.7822 62.9371 23.8743L62.9446 23.8788C62.9884 23.9069 63.0323 23.9349 63.0757 23.9637L63.1037 23.9821C63.1464 24.0102 63.1886 24.0386 63.2308 24.0674L63.2494 24.0805C63.3828 24.173 63.515 24.2691 63.6441 24.3679L63.6635 24.3825C63.6801 24.3954 63.6963 24.4082 63.7125 24.4211C63.7337 24.4379 63.7548 24.4547 63.7772 24.4716L63.8135 24.5008C63.8501 24.53 63.8864 24.5595 63.9224 24.5895L63.9544 24.6161C64.0713 24.7122 64.1861 24.8125 64.2978 24.9155L64.3306 24.9454C64.3626 24.975 64.3941 25.0049 64.4257 25.0352L64.4703 25.0779L64.5611 25.1666L64.6046 25.2104C64.7036 25.3099 64.8003 25.4121 64.8947 25.5157L64.9401 25.5659L65.0167 25.6527L65.068 25.7118C65.0925 25.7407 65.1169 25.7691 65.141 25.7979L65.1931 25.8608C65.2164 25.8892 65.2401 25.9177 65.263 25.9465L65.3171 26.015C65.3324 26.0349 65.3474 26.0548 65.3624 26.0746C65.3851 26.1047 65.4078 26.1347 65.4315 26.1647L65.4872 26.2395L65.494 26.2488L65.5115 26.2735C65.5237 26.2907 65.5357 26.3077 65.5468 26.3219C65.5654 26.3454 65.5843 26.3698 65.6017 26.3967C65.6129 26.4141 65.6255 26.4317 65.638 26.4493C65.6449 26.459 65.6518 26.4686 65.6585 26.4783C65.6775 26.5056 65.6968 26.5352 65.7146 26.561C65.7324 26.5868 65.7497 26.6126 65.7671 26.6388C65.7902 26.6737 65.8129 26.709 65.8354 26.7442L65.8484 26.7646L65.9053 26.8559C65.922 26.8809 65.9367 26.9057 65.9516 26.9307L65.9517 26.9308L65.9518 26.9311L65.9672 26.9569C65.9822 26.9809 65.9972 27.0063 66.0118 27.0318C66.0304 27.0632 66.0485 27.0947 66.0667 27.1261L66.1101 27.201L66.1658 27.3024L66.2053 27.3724C66.2345 27.4263 66.2633 27.4828 66.2913 27.5385L66.3021 27.5605C66.3065 27.5696 66.3108 27.5786 66.3154 27.5875C66.3344 27.6232 66.3511 27.6591 66.3679 27.6953L66.3774 27.7155L66.3929 27.7484L66.4101 27.7855C66.4275 27.823 66.4445 27.8604 66.4611 27.8978L66.493 27.97C66.5008 27.9879 66.5086 28.0063 66.5163 28.0246C66.5253 28.046 66.5342 28.0673 66.5432 28.0875C66.5522 28.1089 66.5613 28.1302 66.57 28.1519C66.5945 28.2114 66.6186 28.2709 66.6415 28.3308L66.6476 28.3469C66.6496 28.3522 66.6515 28.3576 66.6537 28.363C66.6732 28.4139 66.6921 28.4652 66.7105 28.5168L66.7181 28.5383L66.7334 28.5819C66.748 28.6231 66.7623 28.6646 66.7761 28.7062L66.7898 28.7481L66.799 28.7761C66.8061 28.8005 66.8136 28.8248 66.8212 28.8492C66.827 28.868 66.8328 28.8868 66.8384 28.9056L66.8574 28.9666C66.8763 29.0298 66.8945 29.0931 66.9119 29.1568L66.9166 29.1736C66.9324 29.2323 66.9478 29.2911 66.9624 29.3499L66.9627 29.3511C66.9677 29.3717 66.9727 29.3922 66.9774 29.4127C66.9884 29.4573 66.9991 29.5022 67.009 29.5475L67.0244 29.6163C67.0256 29.6219 67.0283 29.6279 67.0283 29.6339ZM44.2035 29.6339H43.6406C43.6406 29.6279 43.6379 29.6219 43.6367 29.6163L43.6213 29.5475C43.6114 29.5022 43.6007 29.4573 43.5897 29.4127C43.585 29.3918 43.5798 29.3708 43.5747 29.3499C43.5601 29.2911 43.5447 29.2323 43.5289 29.1736L43.5242 29.1568C43.5068 29.0931 43.4886 29.0298 43.4697 28.9666L43.4507 28.9056C43.4451 28.8869 43.4393 28.8681 43.4336 28.8495L43.4335 28.8492C43.4259 28.8248 43.4184 28.8005 43.4113 28.7761C43.407 28.7627 43.4026 28.7495 43.3982 28.7362L43.3884 28.7062L43.3732 28.661C43.3642 28.6345 43.355 28.6081 43.3457 28.5819C43.3382 28.5602 43.3303 28.5381 43.3228 28.5168C43.3044 28.4652 43.2855 28.4139 43.266 28.363C43.2638 28.3576 43.2619 28.3522 43.2599 28.3469C43.2579 28.3416 43.2559 28.3362 43.2538 28.3308C43.2309 28.2709 43.2068 28.2114 43.1823 28.1519C43.1737 28.1303 43.1647 28.1091 43.1556 28.0879L43.1556 28.0877L43.1555 28.0875C43.1465 28.0673 43.1376 28.046 43.1286 28.0246C43.1209 28.0063 43.1131 27.9879 43.1053 27.97L43.0734 27.8978C43.0568 27.8604 43.0398 27.823 43.0224 27.7855C43.0118 27.7623 43.0007 27.7387 42.9897 27.7155L42.9802 27.6953C42.9634 27.6591 42.9467 27.6232 42.9277 27.5875C42.9231 27.5787 42.9188 27.5697 42.9144 27.5606L42.9036 27.5385C42.8756 27.4828 42.8468 27.4263 42.8176 27.3724L42.7781 27.3024L42.7224 27.201L42.679 27.1261L42.6785 27.1252C42.6605 27.0941 42.6425 27.0629 42.6241 27.0318C42.6095 27.0063 42.5945 26.9809 42.5795 26.9569L42.5641 26.9312C42.5492 26.906 42.5344 26.8811 42.5176 26.8559L42.4607 26.7646L42.448 26.7447C42.4254 26.7093 42.4027 26.6738 42.3794 26.6388C42.3718 26.6274 42.3642 26.616 42.3566 26.6046C42.3468 26.5901 42.3369 26.5755 42.3269 26.561C42.3188 26.5492 42.3104 26.5367 42.3018 26.5239C42.2916 26.5087 42.2811 26.4932 42.2708 26.4783C42.2641 26.4686 42.2573 26.459 42.2504 26.4494C42.2378 26.4317 42.2252 26.4141 42.214 26.3967C42.1966 26.3698 42.1777 26.3454 42.1591 26.3219C42.148 26.3077 42.136 26.2907 42.1238 26.2735L42.1236 26.2732C42.1156 26.2618 42.1075 26.2504 42.0995 26.2395L42.0439 26.1647C42.0201 26.1347 41.9974 26.1047 41.9747 26.0746C41.9598 26.0548 41.9448 26.0349 41.9294 26.015L41.8753 25.9465C41.8585 25.9253 41.8413 25.9044 41.8241 25.8835C41.8178 25.8759 41.8116 25.8684 41.8054 25.8608L41.7533 25.7979C41.7292 25.7691 41.7048 25.7407 41.6803 25.7118L41.629 25.6527L41.5524 25.5659L41.507 25.5157C41.4127 25.4121 41.3159 25.3099 41.2169 25.2104L41.1734 25.1666L41.0826 25.0779L41.038 25.0352C41.0065 25.0049 40.9749 24.975 40.9429 24.9454L40.9101 24.9155C40.7984 24.8125 40.6836 24.7122 40.5667 24.6161L40.5347 24.5895C40.4987 24.5595 40.4624 24.53 40.4258 24.5008L40.3895 24.4716C40.3671 24.4547 40.346 24.4379 40.3248 24.4211C40.315 24.4133 40.3052 24.4055 40.2952 24.3977C40.2888 24.3926 40.2823 24.3876 40.2758 24.3825L40.2564 24.3679C40.1273 24.2691 39.9951 24.173 39.8617 24.0805L39.8431 24.0674C39.8009 24.0386 39.7587 24.0102 39.716 23.9821L39.688 23.9637C39.6446 23.9349 39.6008 23.9069 39.5569 23.8788L39.5494 23.8743C39.4042 23.7822 39.2561 23.694 39.1053 23.6097L39.0994 23.606C39.0517 23.5794 39.0039 23.5536 38.9562 23.5278L38.9561 23.5278L38.9352 23.5165C38.681 23.3806 38.4199 23.2558 38.152 23.1423L38.1354 23.1352C38.0648 23.1052 37.9937 23.0764 37.9219 23.048H39.3347C39.5648 23.048 39.7515 22.7969 39.7515 22.4866C39.7515 22.1764 39.5648 21.9252 39.3347 21.9252H38.9139C38.9399 21.8624 38.9688 21.7913 38.9999 21.7112C39.3979 21.4762 40.0981 20.9754 40.7929 20.0555L40.7984 20.0484C40.8511 19.9796 40.9028 19.9083 40.9536 19.8347L40.9638 19.8201C41.0144 19.7479 41.0649 19.6734 41.1146 19.5956L41.128 19.575L41.1991 19.4627C41.1991 19.4627 41.1991 19.4617 41.1996 19.4606C41.2 19.4597 41.2007 19.4587 41.2019 19.4579C41.2214 19.428 41.2406 19.3959 41.2598 19.3638L41.2599 19.3637L41.2745 19.3392L41.2899 19.3134C41.3104 19.279 41.3313 19.2438 41.3515 19.2082C41.3554 19.2019 41.3594 19.1955 41.3629 19.1888C41.3862 19.1484 41.4095 19.1072 41.4324 19.0656L41.4482 19.0368C41.4671 19.0024 41.4857 18.9676 41.5042 18.9324C41.5064 18.9287 41.5085 18.9249 41.5106 18.921C41.514 18.9149 41.5173 18.9087 41.5204 18.9025C41.5425 18.8602 41.5646 18.8175 41.5867 18.7741L41.6021 18.7438C41.6124 18.723 41.6228 18.702 41.6331 18.6809C41.6403 18.6662 41.6475 18.6515 41.6546 18.6368L41.6736 18.5993C41.6869 18.5717 41.7001 18.5438 41.7132 18.5156C41.7211 18.4988 41.7289 18.4819 41.7367 18.465L41.7498 18.4362C41.7671 18.3987 41.7841 18.3613 41.8011 18.3239L41.8212 18.279C41.841 18.2337 41.8607 18.188 41.8796 18.142C41.8832 18.1338 41.8867 18.1252 41.8899 18.1169C41.9077 18.0746 41.925 18.0316 41.9424 17.9882L41.9621 17.9388C41.9783 17.8976 41.9945 17.8561 42.0103 17.8146L42.0221 17.7831C42.036 17.7463 42.0496 17.7088 42.0631 17.6715L42.077 17.6334L42.096 17.5803C42.1101 17.5407 42.1239 17.5004 42.1377 17.4601L42.1378 17.4598L42.1379 17.4596C42.143 17.4447 42.1481 17.4298 42.1528 17.4149C42.1702 17.3632 42.1875 17.3104 42.2045 17.2577C42.21 17.2393 42.216 17.2203 42.2215 17.203L42.261 17.0799L42.2672 17.0582C42.2704 17.0471 42.2737 17.0361 42.2768 17.0264C42.2929 16.9721 42.3091 16.9167 42.3245 16.861L42.3308 16.8385L42.3391 16.8075L42.3394 16.8066C42.3511 16.7639 42.3629 16.7211 42.3743 16.6776C42.3794 16.6578 42.3845 16.6379 42.3901 16.6181C42.4047 16.5605 42.4193 16.5025 42.4335 16.4437L42.4453 16.3947C42.4564 16.3479 42.4674 16.3007 42.4781 16.2532L42.4923 16.1896C42.5057 16.1286 42.5191 16.0676 42.5318 16.0055C42.5345 15.9935 42.5369 15.9811 42.5393 15.968C42.5503 15.9145 42.561 15.8603 42.5712 15.806C42.5734 15.795 42.5755 15.784 42.5775 15.773C42.5796 15.7619 42.5817 15.7508 42.5839 15.7397C42.5941 15.684 42.604 15.6275 42.6139 15.5717L42.6169 15.5549L42.6202 15.5365C42.6312 15.4707 42.642 15.4043 42.6526 15.3374C42.6561 15.315 42.6597 15.2925 42.6628 15.2697C42.6711 15.2154 42.679 15.1608 42.6869 15.1054L42.694 15.0545C42.7035 14.9856 42.7126 14.9164 42.7212 14.846L42.7254 14.8109L42.7291 14.7794C42.736 14.7235 42.7423 14.6674 42.7481 14.611L42.7487 14.6055C42.7509 14.5872 42.753 14.5691 42.7548 14.5508C42.7624 14.4784 42.7695 14.4054 42.7761 14.3318C42.7761 14.3187 42.7776 14.3056 42.779 14.2923C42.7799 14.2848 42.7807 14.2773 42.7812 14.2697C42.7864 14.2106 42.7915 14.1511 42.7959 14.0912C42.7959 14.0835 42.7963 14.0758 42.7969 14.068C42.7975 14.0616 42.7981 14.0551 42.7988 14.0487C42.7996 14.0408 42.8004 14.0329 42.801 14.025C42.8065 13.9486 42.8116 13.8718 42.8164 13.7944C42.8164 13.7768 42.8164 13.757 42.8191 13.7413C42.8227 13.6769 42.8263 13.6122 42.829 13.5471C42.829 13.5235 42.829 13.4999 42.8322 13.4763C42.8353 13.3959 42.8385 13.315 42.8409 13.2331V13.1986C42.843 13.1258 42.8445 13.0522 42.8456 12.9778V12.9048V12.6638V12.6451V12.3832V12.3083C42.8456 12.2541 42.8439 12.198 42.8423 12.1416L42.8405 12.077V12.0347C42.8378 11.9466 42.8343 11.8575 42.8308 11.7679L42.8306 11.7627C42.8306 11.7485 42.8297 11.7342 42.8289 11.7199C42.8283 11.7104 42.8278 11.701 42.8274 11.6915C42.824 11.6147 42.8201 11.5374 42.8156 11.4595C42.8156 11.4404 42.8156 11.4221 42.8124 11.4015C42.8069 11.3079 42.8009 11.2136 42.7943 11.1186L42.7895 11.0523L42.7889 11.0436C42.7832 10.9671 42.7775 10.8903 42.771 10.8128C42.771 10.7968 42.7693 10.7807 42.7676 10.7647C42.7668 10.7575 42.7661 10.7504 42.7655 10.7432C42.7572 10.6459 42.7481 10.5475 42.7386 10.4487C42.7386 10.4371 42.7371 10.4255 42.7356 10.4138C42.7346 10.4066 42.7337 10.3994 42.7331 10.3922C42.7248 10.308 42.7157 10.223 42.7066 10.1373C42.7039 10.1115 42.7011 10.086 42.698 10.0602C42.6869 9.95843 42.6751 9.85626 42.6624 9.75259C42.6624 9.74421 42.6609 9.73584 42.6594 9.72767L42.6594 9.72764C42.6586 9.72341 42.6578 9.71925 42.6573 9.71517C42.646 9.62236 42.634 9.52905 42.6214 9.43524L42.6156 9.3935L42.6099 9.35216C42.5952 9.24587 42.5801 9.13871 42.5645 9.03068C40.9855 -1.62554 29.796 0.103841 29.796 0.103841L30.1544 2.39347L23.3872 9.17102L23.6829 11.7881L26.2464 13.2851C26.3607 13.0097 26.5074 12.7474 26.6838 12.5033C28.3378 10.6946 31.5467 9.27468 32.4653 8.98015C32.6492 8.9214 32.7538 8.89183 32.7538 8.89183C28.3599 14.2832 28.8596 20.4597 29.0554 21.932C28.8517 21.9694 28.6942 22.2026 28.6942 22.487C28.6942 22.7969 28.8809 23.0484 29.1111 23.0484H30.5239C28.1742 23.9808 26.3091 25.7567 25.3357 27.9884L25.334 27.9926L25.3317 27.9973C25.2599 28.163 25.1931 28.331 25.1312 28.5015C25.1313 28.5032 25.1313 28.5049 25.1312 28.5067C25.1146 28.5531 25.0984 28.5995 25.0827 28.6463L25.0826 28.6466C25.0767 28.6633 25.0708 28.6801 25.0653 28.6972C25.0511 28.7391 25.0379 28.7814 25.0258 28.8241C25.02 28.8418 25.0145 28.8598 25.009 28.8776L25.0053 28.8895C24.9927 28.9296 24.9804 28.97 24.9686 29.0104L24.9473 29.0853C24.9362 29.1227 24.9252 29.1627 24.9149 29.2017C24.9074 29.2294 24.9003 29.2567 24.8932 29.2844L24.8836 29.3218C24.8772 29.3467 24.8708 29.3717 24.8648 29.3966C24.8557 29.4341 24.847 29.4715 24.8383 29.5112C24.8341 29.5302 24.8294 29.5508 24.8246 29.5719L24.8245 29.5721C24.8193 29.5949 24.814 29.6182 24.8091 29.6407H24.2458C24.1375 29.6384 24.0298 29.6567 23.929 29.6944C23.8282 29.7321 23.7364 29.7886 23.659 29.8604C23.5815 29.9322 23.52 30.018 23.4779 30.1127C23.4359 30.2074 23.4143 30.3091 23.4143 30.4118C23.4143 30.5145 23.4359 30.6162 23.4779 30.7109C23.52 30.8056 23.5815 30.8913 23.659 30.9632C23.7364 31.035 23.8282 31.0914 23.929 31.1292C24.0298 31.1669 24.1375 31.1852 24.2458 31.1829H44.2106C44.319 31.1852 44.4267 31.1669 44.5274 31.1292C44.6282 31.0914 44.72 31.035 44.7975 30.9632C44.8749 30.8913 44.9365 30.8056 44.9785 30.7109C45.0205 30.6162 45.0421 30.5145 45.0421 30.4118C45.0421 30.3091 45.0205 30.2074 44.9785 30.1127C44.9365 30.018 44.8749 29.9322 44.7975 29.8604C44.72 29.7886 44.6282 29.7321 44.5274 29.6944C44.4267 29.6567 44.319 29.6384 44.2106 29.6407L44.2035 29.6339ZM90.4155 29.6339H90.9784L90.9855 29.6407C91.0939 29.6384 91.2016 29.6567 91.3023 29.6944C91.4031 29.7321 91.4949 29.7886 91.5724 29.8604C91.6498 29.9322 91.7114 30.018 91.7534 30.1127C91.7954 30.2074 91.817 30.3091 91.817 30.4118C91.817 30.5145 91.7954 30.6162 91.7534 30.7109C91.7114 30.8056 91.6498 30.8913 91.5724 30.9632C91.4949 31.035 91.4031 31.0914 91.3023 31.1292C91.2016 31.1669 91.0939 31.1852 90.9855 31.1829H71.0207C70.9124 31.1852 70.8047 31.1669 70.7039 31.1292C70.6031 31.0914 70.5113 31.035 70.4339 30.9632C70.3564 30.8913 70.2949 30.8056 70.2528 30.7109C70.2108 30.6162 70.1892 30.5145 70.1892 30.4118C70.1892 30.3091 70.2108 30.2074 70.2528 30.1127C70.2949 30.018 70.3564 29.9322 70.4339 29.8604C70.5113 29.7886 70.6031 29.7321 70.7039 29.6944C70.8047 29.6567 70.9124 29.6384 71.0207 29.6407H71.584C71.5889 29.618 71.5943 29.5946 71.5995 29.5718C71.6043 29.5507 71.609 29.5302 71.6132 29.5112C71.6219 29.4715 71.6306 29.4341 71.6397 29.3966C71.6457 29.3717 71.6521 29.3467 71.6585 29.3218C71.6617 29.3093 71.6649 29.2968 71.6681 29.2844C71.6752 29.2567 71.6823 29.2294 71.6898 29.2017C71.7001 29.1627 71.7111 29.1227 71.7222 29.0853L71.7435 29.0104C71.7553 28.97 71.7676 28.9296 71.7802 28.8895L71.7837 28.8781C71.7893 28.8601 71.7949 28.8419 71.8007 28.8241C71.8128 28.7814 71.826 28.7391 71.8402 28.6972C71.8457 28.68 71.8516 28.6631 71.8576 28.6463C71.8634 28.6291 71.8692 28.6119 71.8752 28.5948C71.8853 28.5653 71.8956 28.536 71.9061 28.5067C71.9062 28.5049 71.9062 28.5032 71.9061 28.5015C71.968 28.331 72.0348 28.163 72.1066 27.9973C72.1081 27.9944 72.1094 27.9914 72.1106 27.9884C73.084 25.7567 74.9491 23.9808 77.2988 23.0484H75.886C75.6558 23.0484 75.4691 22.7969 75.4691 22.487C75.4691 22.2026 75.6266 21.9694 75.8303 21.932C75.6345 20.4597 75.1348 14.2832 79.5287 8.89183C79.5287 8.89183 79.4241 8.9214 79.2402 8.98015C78.3216 9.27468 75.1127 10.6946 73.4587 12.5033C73.2823 12.7474 73.1356 13.0097 73.0213 13.2851L70.4578 11.7881L70.1621 9.17102L76.9293 2.39347L76.5709 0.103841C76.5709 0.103841 87.7604 -1.62554 89.3394 9.03068C89.355 9.13871 89.3701 9.24587 89.3848 9.35216C89.3868 9.36614 89.3887 9.38012 89.3906 9.39411C89.3925 9.40782 89.3943 9.42153 89.3963 9.43524C89.4089 9.52905 89.4209 9.62236 89.4322 9.71517C89.4327 9.71925 89.4335 9.72341 89.4343 9.72763C89.4358 9.73581 89.4373 9.7442 89.4373 9.75259C89.45 9.85626 89.4618 9.95843 89.4729 10.0602C89.476 10.086 89.4788 10.1115 89.4815 10.1373C89.4906 10.223 89.4997 10.308 89.508 10.3922C89.5096 10.4113 89.5135 10.43 89.5135 10.4487C89.523 10.5475 89.5321 10.6459 89.5404 10.7432C89.541 10.7504 89.5417 10.7575 89.5425 10.7646C89.5442 10.7807 89.5459 10.7968 89.5459 10.8128C89.5526 10.8933 89.5585 10.973 89.5644 11.0523L89.5692 11.1186C89.5758 11.2136 89.5818 11.3079 89.5873 11.4015C89.589 11.4123 89.5898 11.4225 89.5902 11.4326C89.5905 11.4416 89.5905 11.4505 89.5905 11.4595C89.595 11.5374 89.5989 11.6147 89.6023 11.6915C89.6026 11.7009 89.6032 11.7104 89.6038 11.7199C89.6046 11.7342 89.6055 11.7485 89.6055 11.7627L89.6058 11.7705C89.6092 11.8592 89.6127 11.9475 89.6154 12.0347V12.077C89.6159 12.0985 89.6165 12.12 89.6172 12.1415C89.6188 12.1979 89.6205 12.2541 89.6205 12.3083V12.3832V12.6451V12.6638V12.9048V12.9778C89.6194 13.0522 89.6179 13.1258 89.6158 13.1986V13.2331C89.6134 13.315 89.6102 13.3959 89.6071 13.4763C89.6039 13.4999 89.6039 13.5235 89.6039 13.5471C89.6012 13.6122 89.5976 13.6769 89.594 13.7413C89.5913 13.757 89.5913 13.7768 89.5913 13.7944C89.5865 13.8718 89.5814 13.9486 89.5759 14.025C89.5753 14.0328 89.5745 14.0407 89.5737 14.0486C89.5722 14.0628 89.5708 14.077 89.5708 14.0912C89.5664 14.1511 89.5613 14.2106 89.5562 14.2697C89.5546 14.2907 89.551 14.3113 89.551 14.3318C89.5444 14.4054 89.5373 14.4784 89.5297 14.5508C89.5279 14.5689 89.5258 14.5867 89.5237 14.6048L89.523 14.611C89.5172 14.6674 89.5109 14.7235 89.504 14.7794C89.5013 14.8019 89.4989 14.824 89.4962 14.846C89.4875 14.9164 89.4784 14.9856 89.4689 15.0545L89.4618 15.1054C89.4539 15.1608 89.446 15.2154 89.4377 15.2697C89.4346 15.2925 89.431 15.315 89.4275 15.3374C89.4169 15.4043 89.4061 15.4707 89.3951 15.5365C89.3931 15.5481 89.3908 15.5597 89.3888 15.5717C89.3789 15.6275 89.369 15.684 89.3588 15.7397C89.3544 15.7618 89.3505 15.7839 89.3461 15.806C89.3359 15.8603 89.3252 15.9145 89.3142 15.968C89.3118 15.9811 89.3094 15.9935 89.3067 16.0055C89.294 16.0676 89.2806 16.1286 89.2672 16.1896L89.253 16.2532C89.2423 16.3007 89.2313 16.3479 89.2202 16.3947L89.2084 16.4437C89.1942 16.5025 89.1796 16.5605 89.165 16.6181C89.1594 16.6379 89.1543 16.6578 89.1492 16.6776C89.1377 16.7214 89.1259 16.7644 89.114 16.8075L89.1139 16.8081C89.1092 16.8259 89.1045 16.8436 89.0994 16.861C89.084 16.9167 89.0678 16.9721 89.0517 17.0264C89.0467 17.0418 89.0414 17.0604 89.0365 17.0778L89.0359 17.0799L88.9964 17.203C88.9909 17.2203 88.985 17.2393 88.9794 17.2577C88.9712 17.2833 88.9629 17.3089 88.9545 17.3344C88.9456 17.3614 88.9366 17.3883 88.9277 17.4149C88.9248 17.4241 88.9217 17.4332 88.9186 17.4424C88.9167 17.4482 88.9147 17.454 88.9127 17.4598C88.8989 17.5002 88.8851 17.5406 88.8709 17.5803L88.8519 17.6334C88.8472 17.6464 88.8424 17.6595 88.8377 17.6726C88.8242 17.7095 88.8108 17.7466 88.7971 17.7831L88.7852 17.8146C88.7694 17.8561 88.7532 17.8976 88.737 17.9388L88.7173 17.9882C88.6999 18.0316 88.6826 18.0746 88.6648 18.1169C88.6617 18.1252 88.6581 18.1338 88.6545 18.142C88.6356 18.188 88.6159 18.2337 88.5961 18.279L88.576 18.3239L88.5751 18.326C88.5584 18.3627 88.5417 18.3994 88.5247 18.4362L88.5116 18.465C88.4907 18.5103 88.4698 18.5552 88.4485 18.5993L88.4295 18.6368C88.4122 18.6727 88.3944 18.7086 88.377 18.7438L88.3616 18.7741C88.3395 18.8175 88.3174 18.8602 88.2953 18.9025C88.2902 18.9126 88.2847 18.9227 88.2791 18.9324C88.2669 18.9557 88.2546 18.9788 88.2422 19.0017C88.2359 19.0135 88.2295 19.0252 88.2231 19.0368L88.2073 19.0656C88.1844 19.1072 88.1611 19.1484 88.1378 19.1888C88.1343 19.1955 88.1303 19.2019 88.1264 19.2082C88.1062 19.2438 88.0853 19.279 88.0648 19.3134L88.0494 19.3392C88.0445 19.3473 88.0396 19.3555 88.0348 19.3637C88.0155 19.3958 87.9963 19.428 87.9768 19.4579C87.974 19.4597 87.974 19.4627 87.974 19.4627L87.9029 19.575L87.8895 19.5956C87.8398 19.6734 87.7893 19.7479 87.7387 19.8201L87.7285 19.8347C87.6777 19.9083 87.626 19.9796 87.5733 20.0484L87.5678 20.0555C86.873 20.9754 86.1728 21.4762 85.7748 21.7112C85.7437 21.7913 85.7148 21.8624 85.6888 21.9252H86.1096C86.3397 21.9252 86.5265 22.1764 86.5265 22.4866C86.5265 22.7969 86.3397 23.048 86.1096 23.048H84.6968C84.7686 23.0764 84.8397 23.1052 84.9103 23.1352L84.9269 23.1423C85.1948 23.2558 85.4559 23.3806 85.7101 23.5165L85.731 23.5278L85.7314 23.528C85.7791 23.5537 85.8267 23.5795 85.8743 23.606L85.8802 23.6097C86.031 23.694 86.1791 23.7822 86.3243 23.8743L86.3318 23.8788C86.3757 23.9069 86.4195 23.9349 86.4629 23.9637L86.4909 23.9821C86.5336 24.0102 86.5758 24.0386 86.618 24.0674L86.6366 24.0805C86.77 24.173 86.9023 24.2691 87.0313 24.3679L87.0507 24.3825C87.089 24.4121 87.1249 24.4417 87.1644 24.4716L87.2007 24.5008C87.2373 24.53 87.2736 24.5595 87.3096 24.5895L87.3416 24.6161C87.4585 24.7122 87.5733 24.8125 87.685 24.9155L87.7178 24.9454C87.7498 24.975 87.7814 25.0049 87.8129 25.0352L87.8575 25.0779L87.9483 25.1666L87.9918 25.2104C88.0908 25.3099 88.1876 25.4121 88.2819 25.5157L88.3273 25.5659L88.4039 25.6527L88.4552 25.7118C88.4628 25.7208 88.4705 25.7298 88.4781 25.7387C88.4949 25.7585 88.5117 25.7781 88.5282 25.7979L88.5803 25.8608C88.5865 25.8683 88.5926 25.8757 88.5988 25.8832C88.616 25.9042 88.6333 25.9253 88.6502 25.9465L88.7043 26.015C88.7197 26.0349 88.7346 26.0548 88.7496 26.0746C88.7723 26.1047 88.795 26.1347 88.8188 26.1647L88.8744 26.2395C88.8825 26.2504 88.8906 26.262 88.8987 26.2735C88.9109 26.2907 88.9229 26.3077 88.934 26.3219C88.9526 26.3454 88.9715 26.3698 88.9889 26.3967C89.0001 26.4141 89.0127 26.4317 89.0253 26.4493C89.0321 26.459 89.039 26.4686 89.0457 26.4783C89.056 26.4931 89.0664 26.5086 89.0766 26.5238C89.0852 26.5366 89.0937 26.5492 89.1018 26.561C89.1145 26.5795 89.1271 26.5981 89.1396 26.6168C89.1445 26.6241 89.1494 26.6315 89.1543 26.6388C89.1819 26.6804 89.2088 26.7227 89.2356 26.7646L89.2925 26.8559C89.315 26.8896 89.3339 26.9229 89.3544 26.9569C89.3694 26.9809 89.3844 27.0063 89.399 27.0318C89.4176 27.0632 89.4358 27.0947 89.4539 27.1261L89.4973 27.201L89.553 27.3024L89.5925 27.3724C89.6217 27.4263 89.6505 27.4828 89.6785 27.5385C89.6822 27.5459 89.6858 27.5532 89.6893 27.5605C89.6937 27.5696 89.698 27.5786 89.7026 27.5875C89.7216 27.6232 89.7383 27.6591 89.7551 27.6953L89.7646 27.7155C89.7756 27.7387 89.7867 27.7623 89.7973 27.7855C89.8147 27.823 89.8317 27.8604 89.8483 27.8978L89.8802 27.97C89.8881 27.9879 89.8958 28.0063 89.9035 28.0246C89.9125 28.046 89.9214 28.0673 89.9304 28.0875L89.9304 28.0877C89.9395 28.109 89.9486 28.1303 89.9572 28.1519C89.9817 28.2114 90.0058 28.2709 90.0287 28.3308C90.0308 28.3362 90.0328 28.3416 90.0348 28.3469C90.0368 28.3522 90.0387 28.3576 90.0409 28.363C90.0604 28.4139 90.0793 28.4652 90.0977 28.5168C90.1052 28.5381 90.1131 28.5602 90.1206 28.5819C90.1352 28.6231 90.1495 28.6646 90.1633 28.7062C90.1665 28.7162 90.1698 28.7262 90.1732 28.7363C90.1775 28.7495 90.1819 28.7628 90.1862 28.7761C90.1933 28.8005 90.2008 28.8248 90.2084 28.8492C90.2142 28.868 90.22 28.8868 90.2256 28.9056L90.2446 28.9666C90.2635 29.0298 90.2817 29.0931 90.2991 29.1568L90.3038 29.1736C90.3196 29.2323 90.335 29.2911 90.3496 29.3499L90.3499 29.3511C90.3549 29.3717 90.36 29.3922 90.3646 29.4127C90.3757 29.4573 90.3863 29.5022 90.3962 29.5475L90.4116 29.6163C90.4128 29.6219 90.4155 29.6279 90.4155 29.6339Z" fill="#595653"/>
</svg>
